<svg width="600" height="440" viewBox="0 0 600 440" fill="none" xmlns="http://www.w3.org/2000/svg">
<path opacity="0.55" d="M504.167 34H56.8333C43.6705 34 33 44.691 33 57.8789V359.121C33 372.309 43.6705 383 56.8333 383H504.167C517.329 383 528 372.309 528 359.121V57.8789C528 44.691 517.329 34 504.167 34Z" fill="#E2E6ED"/>
<path d="M491.167 20H43.8333C30.6705 20 20 30.6603 20 43.8105V344.189C20 357.34 30.6705 368 43.8333 368H491.167C504.329 368 515 357.34 515 344.189V43.8105C515 30.6603 504.329 20 491.167 20Z" fill="white"/>
<path d="M514.166 43.7382C514.166 31.0877 503.902 20.8325 491.242 20.8325H43.7583C31.0975 20.8325 20.8339 31.0877 20.8339 43.7382V344.262C20.8339 356.912 31.0975 367.168 43.7583 367.168H491.242C503.902 367.168 514.166 356.912 514.166 344.262V43.7382ZM516 344.262C516 357.924 504.915 369 491.242 369H43.7583C30.0847 369 19 357.924 19 344.262V43.7382C19 30.0757 30.0847 19 43.7583 19H491.242C504.915 19 516 30.0757 516 43.7382V344.262Z" fill="#E5E8EE"/>
<path d="M515 64V66H20V64H515Z" fill="#EEF1F5"/>
<path d="M50.5 49C53.5376 49 56 46.5376 56 43.5C56 40.4624 53.5376 38 50.5 38C47.4624 38 45 40.4624 45 43.5C45 46.5376 47.4624 49 50.5 49Z" fill="#FF6161"/>
<path d="M70.5 49C73.5376 49 76 46.5376 76 43.5C76 40.4624 73.5376 38 70.5 38C67.4624 38 65 40.4624 65 43.5C65 46.5376 67.4624 49 70.5 49Z" fill="#FFC53D"/>
<path d="M91.5 49C94.5376 49 97 46.5376 97 43.5C97 40.4624 94.5376 38 91.5 38C88.4624 38 86 40.4624 86 43.5C86 46.5376 88.4624 49 91.5 49Z" fill="#78FAAE"/>
<g opacity="0.55">
<path d="M332.48 95H67.52C64.4714 95 62 97.4624 62 100.5C62 103.538 64.4714 106 67.52 106H332.48C335.529 106 338 103.538 338 100.5C338 97.4624 335.529 95 332.48 95Z" fill="#DDE1E8"/>
<path d="M338 100V102H62V100H338Z" fill="#B7BEC9"/>
</g>
<path d="M367.576 123H68.4235C64.8759 123 62 125.686 62 129C62 132.314 64.8759 135 68.4235 135H367.576C371.124 135 374 132.314 374 129C374 125.686 371.124 123 367.576 123Z" fill="#17C989"/>
<path d="M393.654 124.197L388.47 119.012C387.396 117.938 385.655 117.938 384.581 119.012L358.658 144.935C357.584 146.009 357.584 147.75 358.658 148.824L363.843 154.008C364.917 155.082 366.657 155.082 367.731 154.008L393.654 128.085C394.728 127.011 394.728 125.271 393.654 124.197Z" fill="black"/>
<path d="M356.714 146.88L365.787 155.953L353.473 159.193L356.714 146.88Z" fill="black"/>
<path d="M393.654 124.197L388.47 119.012C387.396 117.938 385.655 117.938 384.581 119.012L381.989 121.604C380.915 122.678 380.915 124.419 381.989 125.493L387.174 130.678C388.247 131.751 389.988 131.751 391.062 130.678L393.654 128.085C394.728 127.011 394.728 125.271 393.654 124.197Z" fill="#17C989"/>
<path d="M461.409 159H66.5909C64.0554 159 62 161.015 62 163.5C62 165.985 64.0554 168 66.5909 168H461.409C463.945 168 466 165.985 466 163.5C466 161.015 463.945 159 461.409 159Z" fill="#EEF1F5"/>
<path d="M433.415 177H66.5854C64.0529 177 62 179.015 62 181.5C62 183.985 64.0529 186 66.5854 186H433.415C435.947 186 438 183.985 438 181.5C438 179.015 435.947 177 433.415 177Z" fill="#EEF1F5"/>
<path d="M396.419 195H66.5811C64.051 195 62 197.239 62 200C62 202.761 64.051 205 66.5811 205H396.419C398.949 205 401 202.761 401 200C401 197.239 398.949 195 396.419 195Z" fill="#EEF1F5"/>
<path d="M241.4 215H66.6C64.0595 215 62 217.015 62 219.5C62 221.985 64.0595 224 66.6 224H241.4C243.941 224 246 221.985 246 219.5C246 217.015 243.941 215 241.4 215Z" fill="#EEF1F5"/>
<path d="M254 213H251V226H254V213Z" fill="#17C989"/>
<path d="M196.894 277H83.1059C71.4494 277 62 286.178 62 297.5C62 308.822 71.4494 318 83.1059 318H196.894C208.551 318 218 308.822 218 297.5C218 286.178 208.551 277 196.894 277Z" fill="black"/>
<path d="M187.694 302.205V291.706H194.381V293.861H189.974V300.05H194.454V302.205H187.694ZM188.984 297.909V296.017H194.132V297.909H188.984Z" fill="white"/>
<path d="M177.068 302.205V291.706H180.771C182.374 291.706 183.667 292.187 184.649 293.15C185.632 294.108 186.123 295.374 186.123 296.948C186.123 298.532 185.632 299.805 184.649 300.768C183.667 301.726 182.374 302.205 180.771 302.205H177.068ZM179.4 300.13H180.639C181.597 300.14 182.357 299.867 182.919 299.309C183.481 298.752 183.762 297.972 183.762 296.97C183.762 295.978 183.481 295.211 182.919 294.668C182.357 294.125 181.597 293.854 180.639 293.854H179.4V300.13Z" fill="white"/>
<path d="M166.17 302.205V291.706H168.56L172.681 298.195H172.732L172.681 296.464V291.706H174.932V302.205H172.827L168.421 295.453H168.37L168.421 297.176V302.205H166.17Z" fill="white"/>
<path d="M154.862 302.205L158.888 291.706H160.992L165.01 302.205H162.473L160.317 295.885L159.936 294.609H159.885L159.503 295.878L157.34 302.205H154.862ZM156.813 300.167L157.428 298.481H162.216L162.869 300.167H156.813Z" fill="white"/>
<path d="M141.911 302.205V291.706H144.778L147.798 299.214H147.842L150.834 291.706H153.693V302.205H151.442V297.014L151.494 295.416H151.442L148.708 302.205H146.904L144.176 295.416H144.125L144.184 297.014V302.205H141.911Z" fill="white"/>
<path d="M127.977 302.205V291.706H130.844L133.864 299.214H133.908L136.9 291.706H139.759V302.205H137.508V297.014L137.56 295.416H137.508L134.774 302.205H132.97L130.242 295.416H130.191L130.25 297.014V302.205H127.977Z" fill="white"/>
<path d="M120.938 302.455C119.433 302.455 118.145 301.946 117.074 300.93C116.009 299.913 115.476 298.583 115.476 296.941C115.476 295.303 116.011 293.981 117.081 292.974C118.157 291.962 119.442 291.457 120.938 291.457C122.429 291.457 123.71 291.967 124.78 292.989C125.856 294.011 126.393 295.33 126.393 296.948C126.393 298.557 125.861 299.876 124.795 300.908C123.729 301.939 122.444 302.455 120.938 302.455ZM120.938 300.204C121.828 300.204 122.571 299.896 123.167 299.28C123.764 298.664 124.062 297.887 124.062 296.948C124.062 295.995 123.761 295.218 123.16 294.617C122.563 294.011 121.823 293.708 120.938 293.708C120.058 293.708 119.318 294.011 118.717 294.617C118.115 295.223 117.815 295.998 117.815 296.941C117.815 297.889 118.113 298.671 118.709 299.287C119.306 299.898 120.049 300.204 120.938 300.204Z" fill="white"/>
<path d="M110.857 302.455C109.268 302.455 107.956 301.937 106.92 300.9C105.883 299.859 105.365 298.539 105.365 296.941C105.365 295.343 105.886 294.03 106.927 293.004C107.968 291.972 109.278 291.457 110.857 291.457C111.346 291.457 111.82 291.52 112.28 291.647C112.744 291.769 113.169 291.945 113.555 292.175C113.946 292.4 114.254 292.627 114.479 292.857C114.709 293.082 114.824 293.194 114.824 293.194L113.269 294.815C113.269 294.815 113.191 294.734 113.035 294.573C112.883 294.411 112.697 294.265 112.478 294.133C112.262 294.001 112.02 293.898 111.752 293.825C111.483 293.747 111.189 293.708 110.872 293.708C109.967 293.708 109.212 294.006 108.606 294.602C108.005 295.198 107.704 295.978 107.704 296.941C107.704 297.899 108.002 298.681 108.599 299.287C109.2 299.893 109.955 300.197 110.864 300.197C111.187 300.197 111.495 300.153 111.788 300.065C112.086 299.977 112.363 299.852 112.617 299.691C112.876 299.524 113.076 299.358 113.218 299.192C113.365 299.021 113.438 298.935 113.438 298.935L115.036 300.556C115.036 300.556 114.917 300.685 114.677 300.944C114.443 301.203 114.117 301.453 113.702 301.692C113.291 301.932 112.844 302.118 112.36 302.25C111.881 302.386 111.38 302.455 110.857 302.455Z" fill="white"/>
<path d="M93.9794 302.205V291.706H100.666V293.861H96.2597V300.05H100.74V302.205H93.9794ZM95.2699 297.909V296.017H100.417V297.909H95.2699Z" fill="white"/>
<path d="M88.4231 302.455C87.8218 302.455 87.2988 302.362 86.854 302.176C86.4092 301.986 86.0181 301.714 85.6808 301.362C85.3435 301.01 85.104 300.668 84.9623 300.336C84.8205 300.003 84.7496 299.837 84.7496 299.837L86.6707 298.979C86.6707 298.979 86.7122 299.075 86.7953 299.265C86.8784 299.451 86.9835 299.627 87.1106 299.793C87.2426 299.955 87.3966 300.082 87.5725 300.174C87.7534 300.262 87.9733 300.306 88.2324 300.306C88.6675 300.306 89.017 300.167 89.2809 299.889C89.5449 299.61 89.6769 299.204 89.6769 298.671V291.706H92.0012V298.796C92.0012 299.925 91.6737 300.817 91.0186 301.472C90.3636 302.127 89.4984 302.455 88.4231 302.455Z" fill="white"/>
<path opacity="0.9" d="M213.13 290.5C213.13 286.214 209.49 282.739 205 282.739C200.51 282.739 196.87 286.214 196.87 290.5C196.87 294.786 200.51 298.261 205 298.261C209.49 298.261 213.13 294.786 213.13 290.5ZM216 290.5C216 296.299 211.075 301 205 301C198.925 301 194 296.299 194 290.5C194 284.701 198.925 280 205 280C211.075 280 216 284.701 216 290.5Z" fill="#17C989"/>
<path opacity="0.5" d="M223.095 290C223.095 280.506 214.994 272.81 205 272.81C195.006 272.81 186.905 280.506 186.905 290C186.905 299.494 195.006 307.19 205 307.19C214.994 307.19 223.095 299.494 223.095 290ZM225 290C225 300.493 216.046 309 205 309C193.954 309 185 300.493 185 290C185 279.507 193.954 271 205 271C216.046 271 225 279.507 225 290Z" fill="#17C989"/>
<path opacity="0.25" d="M232.61 290C232.61 275.29 220.472 263.366 205.5 263.366C190.528 263.366 178.39 275.29 178.39 290C178.39 304.71 190.528 316.634 205.5 316.634C220.472 316.634 232.61 304.71 232.61 290ZM234 290C234 305.464 221.24 318 205.5 318C189.76 318 177 305.464 177 290C177 274.536 189.76 262 205.5 262C221.24 262 234 274.536 234 290Z" fill="#17C989"/>
<path d="M331.5 315C340.613 315 348 307.613 348 298.5C348 289.387 340.613 282 331.5 282C322.387 282 315 289.387 315 298.5C315 307.613 322.387 315 331.5 315Z" fill="#EEF1F5"/>
<path d="M331.5 297C335.642 297 339 293.642 339 289.5C339 285.358 335.642 282 331.5 282C327.358 282 324 285.358 324 289.5C324 293.642 327.358 297 331.5 297Z" fill="#C7CDD8"/>
<path d="M320 307C327.667 299 335.333 299 343 307H320Z" fill="#C7CDD8"/>
<path d="M399 297V300H359V297H399Z" fill="black"/>
<path d="M439.5 315C448.613 315 456 307.613 456 298.5C456 289.387 448.613 282 439.5 282C430.387 282 423 289.387 423 298.5C423 307.613 430.387 315 439.5 315Z" fill="#17C989"/>
<path d="M446.296 289.559C446.849 288.888 447.819 288.81 448.463 289.385C449.107 289.96 449.182 290.97 448.63 291.641L438.094 304.441C437.8 304.799 437.369 305.003 436.917 305C436.464 304.997 436.036 304.786 435.746 304.424L431.356 298.938C430.813 298.26 430.901 297.25 431.553 296.685C432.205 296.119 433.174 296.211 433.717 296.89L436.943 300.921L446.296 289.559Z" fill="black"/>
</svg>
